<?xml version="1.0" encoding="UTF-8"?>
<svg version="1.1" xmlns="http://www.w3.org/2000/svg" width="48" height="48">
<path d="M0 0 C5.32565252 1.98919462 8.8384575 6.88976136 12.625 10.98046875 C13.20507812 11.59277344 13.78515625 12.20507812 14.3828125 12.8359375 C17.11439479 15.8718961 17.625 16.71250753 17.625 20.98046875 C15.975 21.31046875 14.325 21.64046875 12.625 21.98046875 C12.295 25.28046875 11.965 28.58046875 11.625 31.98046875 C3.705 31.98046875 -4.215 31.98046875 -12.375 31.98046875 C-12.705 28.68046875 -13.035 25.38046875 -13.375 21.98046875 C-15.025 21.65046875 -16.675 21.32046875 -18.375 20.98046875 C-18.03492719 15.63932517 -15.04844493 12.99532561 -11.5 9.35546875 C-10.95730469 8.783125 -10.41460937 8.21078125 -9.85546875 7.62109375 C-8.37317142 6.06268825 -6.88079235 4.51616043 -5.375 2.98046875 C-4.61678955 2.1457605 -4.61678955 2.1457605 -3.84326172 1.29418945 C-2.375 -0.01953125 -2.375 -0.01953125 0 0 Z M-2.375 10.98046875 C-2.705 12.63046875 -3.035 14.28046875 -3.375 15.98046875 C-0.9 16.47546875 -0.9 16.47546875 1.625 16.98046875 C1.955 15.33046875 2.285 13.68046875 2.625 11.98046875 C0.975 11.65046875 -0.675 11.32046875 -2.375 10.98046875 Z " fill="#000000" transform="translate(19.375,16.01953125)"/>
<path d="M0 0 C3.83475164 0.21912867 4.94164113 0.94028394 7.6875 3.75 C10 7 10 7 11.0625 9.8125 C11.371875 10.534375 11.68125 11.25625 12 12 C14.02007008 12.66793232 14.02007008 12.66793232 16 13 C16.85969267 24.80644596 16.85969267 24.80644596 13.875 28.6875 C10.64337928 31.2868471 9.1089195 31.89623941 5 32 C2.7265625 30.19140625 2.7265625 30.19140625 0.625 27.5625 C-2.28619275 24.01262721 -5.17342133 20.89814845 -8.625 17.875 C-11.91740715 14.68670059 -11.91740715 14.68670059 -12.2734375 11.7265625 C-12 9.5 -12 9.5 -11 6 C-9.906875 6.20625 -8.81375 6.4125 -7.6875 6.625 C-3.9161599 7.40346525 -3.9161599 7.40346525 -1 5 C-0.27034634 2.43717258 -0.27034634 2.43717258 0 0 Z " fill="#000000" transform="translate(31,0)"/>
</svg>
